# xmcd
#
# Track frame offsets:
#	150
#	16842
#	46585
#	77252
#	152470
#	185968
#	220538
#	244833
#	256992
#
# Disc length: 3694 seconds
#
# Revision: 1
# Processed by: cddbd v1.5.2PL0 Copyright (c) Steve Scherf et al.
# Submitted via: audiograbber 1.83.01
#
DISCID=610e6c09
DTITLE=Mark Knopfler - Live in Salt Lake 2005
DYEAR=2005
DGENRE=Rock
TTITLE0=All that matters
TTITLE1=Boom like that
TTITLE2=Speedway at Nazareth
TTITLE3=Telegraph Road
TTITLE4=Brothers in arms
TTITLE5=Money for nothing
TTITLE6=So far away
TTITLE7=The mist covered mountain
TTITLE8=Wild theme
EXTD=
EXTT0=
EXTT1=
EXTT2=
EXTT3=
EXTT4=
EXTT5=
EXTT6=
EXTT7=
EXTT8=
PLAYORDER=
